# xmcd CD database file
#
# Track frame offsets:
#	150
#	16581
#	29208
#	47072
#	65124
#	87275
#	110513
#	125159
#	141602
#	156182
#	169268
#	179553
#	195258
#	206703
#
# Disc length: 2944 seconds
#
# Revision: 2
# Processed by: cddbd v1.4b41PL1 Copyright (c) Steve Scherf et al.
# Submitted via: Feurio! 1.50.2ß - http://www.feurio.com
#
DISCID=d40b7e0e
DTITLE=Mick Clarke - New Mountain
DYEAR=1900
DGENRE=
TTITLE0=Restless
TTITLE1=Honey Do
TTITLE2=See See Baby
TTITLE3=Bed Of Nails
TTITLE4=London Town
TTITLE5=You Gonna Miss Me
TTITLE6=Please Believe Me
TTITLE7=New Mountain
TTITLE8=Bromley City Limits
TTITLE9=The Howlin' Wolf
TTITLE10=Singapore Strut
TTITLE11=Gettin' Round To It
TTITLE12=Save The World
TTITLE13=I Should've Waited
EXTD=Burnside Records
EXTT0=
EXTT1=
EXTT2=
EXTT3=
EXTT4=
EXTT5=
EXTT6=
EXTT7=
EXTT8=
EXTT9=
EXTT10=
EXTT11=
EXTT12=
EXTT13=
PLAYORDER=
